<mxfile host="app.diagrams.net" modified="2023-06-06T01:38:54.956Z" agent="Mozilla/5.0 (Windows NT 10.0; Win64; x64) AppleWebKit/537.36 (KHTML, like Gecko) Chrome/114.0.0.0 Safari/537.36" etag="Csa44R1jotuXiX4VfyuI" version="21.3.7" type="github">
  <diagram name="Trang-1" id="wai0X3ZslnKfNHlrnv_L">
    <mxGraphModel dx="989" dy="549" grid="1" gridSize="10" guides="1" tooltips="1" connect="1" arrows="1" fold="1" page="1" pageScale="1" pageWidth="1169" pageHeight="827" math="0" shadow="0">
      <root>
        <mxCell id="0" />
        <mxCell id="1" parent="0" />
        <mxCell id="xZcZpQ-Al4G3TelqyWBF-10" value="" style="group" vertex="1" connectable="0" parent="1">
          <mxGeometry x="60" y="60" width="420" height="420" as="geometry" />
        </mxCell>
        <mxCell id="xZcZpQ-Al4G3TelqyWBF-9" value="" style="whiteSpace=wrap;html=1;aspect=fixed;" vertex="1" parent="xZcZpQ-Al4G3TelqyWBF-10">
          <mxGeometry x="-10" width="420" height="420" as="geometry" />
        </mxCell>
        <mxCell id="xZcZpQ-Al4G3TelqyWBF-6" value="Grafana" style="rounded=0;whiteSpace=wrap;html=1;" vertex="1" parent="xZcZpQ-Al4G3TelqyWBF-10">
          <mxGeometry x="20" y="330" width="120" height="60" as="geometry" />
        </mxCell>
        <mxCell id="xZcZpQ-Al4G3TelqyWBF-24" style="edgeStyle=orthogonalEdgeStyle;rounded=0;orthogonalLoop=1;jettySize=auto;html=1;entryX=1;entryY=0.5;entryDx=0;entryDy=0;entryPerimeter=0;" edge="1" parent="xZcZpQ-Al4G3TelqyWBF-10" source="xZcZpQ-Al4G3TelqyWBF-13" target="xZcZpQ-Al4G3TelqyWBF-2">
          <mxGeometry relative="1" as="geometry">
            <Array as="points">
              <mxPoint x="180" y="109" />
              <mxPoint x="180" y="109" />
            </Array>
          </mxGeometry>
        </mxCell>
        <mxCell id="xZcZpQ-Al4G3TelqyWBF-13" value="telegraf" style="rounded=0;whiteSpace=wrap;html=1;" vertex="1" parent="xZcZpQ-Al4G3TelqyWBF-10">
          <mxGeometry x="250" y="85" width="120" height="60" as="geometry" />
        </mxCell>
        <mxCell id="xZcZpQ-Al4G3TelqyWBF-11" value="VM CentOS" style="text;html=1;align=center;verticalAlign=middle;resizable=0;points=[];autosize=1;strokeColor=none;fillColor=none;container=0;" vertex="1" parent="xZcZpQ-Al4G3TelqyWBF-10">
          <mxGeometry x="140" width="90" height="30" as="geometry" />
        </mxCell>
        <mxCell id="xZcZpQ-Al4G3TelqyWBF-23" style="edgeStyle=orthogonalEdgeStyle;rounded=0;orthogonalLoop=1;jettySize=auto;html=1;entryX=0.5;entryY=1;entryDx=0;entryDy=0;" edge="1" parent="xZcZpQ-Al4G3TelqyWBF-10" source="xZcZpQ-Al4G3TelqyWBF-14" target="xZcZpQ-Al4G3TelqyWBF-13">
          <mxGeometry relative="1" as="geometry" />
        </mxCell>
        <mxCell id="xZcZpQ-Al4G3TelqyWBF-14" value="Folder xml file convert to csv file" style="rounded=0;whiteSpace=wrap;html=1;" vertex="1" parent="xZcZpQ-Al4G3TelqyWBF-10">
          <mxGeometry x="250" y="330" width="120" height="60" as="geometry" />
        </mxCell>
        <mxCell id="xZcZpQ-Al4G3TelqyWBF-4" value="InfluxDB" style="text;html=1;align=center;verticalAlign=middle;resizable=0;points=[];autosize=1;strokeColor=none;fillColor=none;" vertex="1" parent="xZcZpQ-Al4G3TelqyWBF-10">
          <mxGeometry x="45" y="55" width="70" height="30" as="geometry" />
        </mxCell>
        <mxCell id="xZcZpQ-Al4G3TelqyWBF-5" value="" style="group" vertex="1" connectable="0" parent="xZcZpQ-Al4G3TelqyWBF-10">
          <mxGeometry x="45" y="85" width="65" height="85" as="geometry" />
        </mxCell>
        <mxCell id="xZcZpQ-Al4G3TelqyWBF-2" value="" style="strokeWidth=2;html=1;shape=mxgraph.flowchart.database;whiteSpace=wrap;container=0;" vertex="1" parent="xZcZpQ-Al4G3TelqyWBF-5">
          <mxGeometry x="9.285714285714286" width="55.714285714285715" height="47.22222222222222" as="geometry" />
        </mxCell>
        <mxCell id="xZcZpQ-Al4G3TelqyWBF-25" style="edgeStyle=orthogonalEdgeStyle;rounded=0;orthogonalLoop=1;jettySize=auto;html=1;" edge="1" parent="xZcZpQ-Al4G3TelqyWBF-10" source="xZcZpQ-Al4G3TelqyWBF-2" target="xZcZpQ-Al4G3TelqyWBF-6">
          <mxGeometry relative="1" as="geometry">
            <Array as="points">
              <mxPoint x="80" y="200" />
              <mxPoint x="80" y="200" />
            </Array>
          </mxGeometry>
        </mxCell>
        <mxCell id="xZcZpQ-Al4G3TelqyWBF-16" value="" style="group" vertex="1" connectable="0" parent="1">
          <mxGeometry x="690" y="120" width="290" height="280" as="geometry" />
        </mxCell>
        <mxCell id="xZcZpQ-Al4G3TelqyWBF-8" value="" style="rounded=0;whiteSpace=wrap;html=1;" vertex="1" parent="xZcZpQ-Al4G3TelqyWBF-16">
          <mxGeometry width="290" height="280" as="geometry" />
        </mxCell>
        <mxCell id="xZcZpQ-Al4G3TelqyWBF-15" value="gNB" style="text;html=1;align=center;verticalAlign=middle;resizable=0;points=[];autosize=1;strokeColor=none;fillColor=none;" vertex="1" parent="xZcZpQ-Al4G3TelqyWBF-16">
          <mxGeometry x="114.79166666666666" width="50" height="30" as="geometry" />
        </mxCell>
        <mxCell id="xZcZpQ-Al4G3TelqyWBF-17" value="" style="rounded=0;whiteSpace=wrap;html=1;" vertex="1" parent="xZcZpQ-Al4G3TelqyWBF-16">
          <mxGeometry x="70" y="98" width="147.5" height="102" as="geometry" />
        </mxCell>
        <mxCell id="xZcZpQ-Al4G3TelqyWBF-28" value="Folder PM Counter xml" style="text;html=1;align=center;verticalAlign=middle;resizable=0;points=[];autosize=1;strokeColor=none;fillColor=none;" vertex="1" parent="xZcZpQ-Al4G3TelqyWBF-16">
          <mxGeometry x="70" y="98" width="150" height="30" as="geometry" />
        </mxCell>
        <mxCell id="xZcZpQ-Al4G3TelqyWBF-29" value="DU" style="rounded=0;whiteSpace=wrap;html=1;" vertex="1" parent="xZcZpQ-Al4G3TelqyWBF-16">
          <mxGeometry x="90" y="134" width="40" height="30" as="geometry" />
        </mxCell>
        <mxCell id="xZcZpQ-Al4G3TelqyWBF-31" value="CU" style="rounded=0;whiteSpace=wrap;html=1;" vertex="1" parent="xZcZpQ-Al4G3TelqyWBF-16">
          <mxGeometry x="150" y="134" width="40" height="30" as="geometry" />
        </mxCell>
        <mxCell id="xZcZpQ-Al4G3TelqyWBF-26" style="edgeStyle=orthogonalEdgeStyle;rounded=0;orthogonalLoop=1;jettySize=auto;html=1;entryX=1;entryY=0.5;entryDx=0;entryDy=0;exitX=0.5;exitY=1;exitDx=0;exitDy=0;" edge="1" parent="1" source="xZcZpQ-Al4G3TelqyWBF-18" target="xZcZpQ-Al4G3TelqyWBF-14">
          <mxGeometry relative="1" as="geometry">
            <Array as="points">
              <mxPoint x="570" y="420" />
            </Array>
          </mxGeometry>
        </mxCell>
        <mxCell id="xZcZpQ-Al4G3TelqyWBF-18" value="Syncthing" style="rounded=0;whiteSpace=wrap;html=1;" vertex="1" parent="1">
          <mxGeometry x="510" y="240" width="120" height="60" as="geometry" />
        </mxCell>
        <mxCell id="xZcZpQ-Al4G3TelqyWBF-27" style="edgeStyle=orthogonalEdgeStyle;rounded=0;orthogonalLoop=1;jettySize=auto;html=1;entryX=1;entryY=0.5;entryDx=0;entryDy=0;" edge="1" parent="1" source="xZcZpQ-Al4G3TelqyWBF-17" target="xZcZpQ-Al4G3TelqyWBF-18">
          <mxGeometry relative="1" as="geometry">
            <Array as="points">
              <mxPoint x="780" y="270" />
              <mxPoint x="780" y="270" />
            </Array>
          </mxGeometry>
        </mxCell>
      </root>
    </mxGraphModel>
  </diagram>
</mxfile>
